<?xml version="1.0" encoding="UTF-8" standalone="no"?>
<!DOCTYPE svg PUBLIC "-//W3C//DTD SVG 1.1//EN"
 "http://www.w3.org/Graphics/SVG/1.1/DTD/svg11.dtd">
<!-- Generated by graphviz version 14.1.2 (20260126.1125)
 -->
<!-- Pages: 1 -->
<svg width="196pt" height="340pt"
 viewBox="0.00 0.00 196.00 340.00" xmlns="http://www.w3.org/2000/svg" xmlns:xlink="http://www.w3.org/1999/xlink">
<g id="graph0" class="graph" transform="scale(1 1) rotate(0) translate(4 335.5)">
<polygon fill="white" stroke="none" points="-4,4 -4,-335.5 191.75,-335.5 191.75,4 -4,4"/>
<text xml:space="preserve" text-anchor="start" x="8" y="-45.5" font-family="Times,serif" font-size="10.00">num tasks: 5362</text>
<text xml:space="preserve" text-anchor="start" x="8" y="-32.75" font-family="Times,serif" font-size="10.00">max projected memory: 151.7 MB</text>
<text xml:space="preserve" text-anchor="start" x="8" y="-20" font-family="Times,serif" font-size="10.00">total nbytes written: 135.3 GB</text>
<text xml:space="preserve" text-anchor="start" x="8" y="-7.25" font-family="Times,serif" font-size="10.00">optimized: False</text>
<!-- op&#45;033 -->
<g id="node1" class="node">
<title>op&#45;033</title>
<g id="a_node1"><a xlink:title="name: op&#45;033&#10;op: blockwise&#10;projected memory: 151.7 MB&#10;tasks: 5352&#10;write chunks: (168, 168, 224)&#10;num input blocks: (1, 1)&#10;num output blocks: (1,)&#10;calls: &#10;line: 851 in chunk">
<path fill="#dcbeff" stroke="black" d="M69,-331.5C69,-331.5 20.75,-331.5 20.75,-331.5 14.75,-331.5 8.75,-325.5 8.75,-319.5 8.75,-319.5 8.75,-297.25 8.75,-297.25 8.75,-291.25 14.75,-285.25 20.75,-285.25 20.75,-285.25 69,-285.25 69,-285.25 75,-285.25 81,-291.25 81,-297.25 81,-297.25 81,-319.5 81,-319.5 81,-325.5 75,-331.5 69,-331.5"/>
<text xml:space="preserve" text-anchor="middle" x="44.88" y="-318" font-family="Helvetica,sans-Serif" font-size="10.00">op&#45;033</text>
<text xml:space="preserve" text-anchor="middle" x="44.88" y="-305.25" font-family="Helvetica,sans-Serif" font-size="10.00">from_array</text>
<text xml:space="preserve" text-anchor="middle" x="44.88" y="-292.5" font-family="Helvetica,sans-Serif" font-size="10.00">tasks: 5352</text>
</a>
</g>
</g>
<!-- array&#45;033 -->
<g id="node2" class="node">
<title>array&#45;033</title>
<g id="a_node2"><a xlink:title="name: array&#45;033&#10;variable: da&#10;shape: (112392, 336, 896)&#10;chunks: (168, 168, 224)&#10;dtype: float32&#10;chunk memory: 25.3 MB&#10;nbytes: 135.3 GB&#10;nchunks: 5352">
<polygon fill="#ffd8b1" stroke="black" points="76.5,-249.25 13.25,-249.25 13.25,-213.25 76.5,-213.25 76.5,-249.25"/>
<text xml:space="preserve" text-anchor="middle" x="44.88" y="-234.5" font-family="Helvetica,sans-Serif" font-size="10.00">array&#45;033</text>
<text xml:space="preserve" text-anchor="middle" x="44.88" y="-221.75" font-family="Helvetica,sans-Serif" font-size="10.00">da</text>
</a>
</g>
</g>
<!-- op&#45;033&#45;&gt;array&#45;033 -->
<g id="edge1" class="edge">
<title>op&#45;033&#45;&gt;array&#45;033</title>
<path fill="none" stroke="black" d="M44.88,-284.84C44.88,-277.26 44.88,-268.7 44.88,-260.73"/>
<polygon fill="black" stroke="black" points="48.38,-260.79 44.88,-250.79 41.38,-260.79 48.38,-260.79"/>
</g>
<!-- op&#45;392 -->
<g id="node3" class="node">
<title>op&#45;392</title>
<g id="a_node3"><a xlink:title="name: op&#45;392&#10;op: blockwise&#10;projected memory: 76.3 MB&#10;tasks: 8&#10;write chunks: (168, 224)&#10;num input blocks: (1, 1)&#10;num output blocks: (1,)&#10;calls: &#10;line: 1787 in __getitem__">
<path fill="#dcbeff" stroke="black" d="M70.5,-177.25C70.5,-177.25 19.25,-177.25 19.25,-177.25 13.25,-177.25 7.25,-171.25 7.25,-165.25 7.25,-165.25 7.25,-143 7.25,-143 7.25,-137 13.25,-131 19.25,-131 19.25,-131 70.5,-131 70.5,-131 76.5,-131 82.5,-137 82.5,-143 82.5,-143 82.5,-165.25 82.5,-165.25 82.5,-171.25 76.5,-177.25 70.5,-177.25"/>
<text xml:space="preserve" text-anchor="middle" x="44.88" y="-163.75" font-family="Helvetica,sans-Serif" font-size="10.00">op&#45;392</text>
<text xml:space="preserve" text-anchor="middle" x="44.88" y="-151" font-family="Helvetica,sans-Serif" font-size="10.00">__getitem__</text>
<text xml:space="preserve" text-anchor="middle" x="44.88" y="-138.25" font-family="Helvetica,sans-Serif" font-size="10.00">tasks: 8</text>
</a>
</g>
</g>
<!-- array&#45;033&#45;&gt;op&#45;392 -->
<g id="edge2" class="edge">
<title>array&#45;033&#45;&gt;op&#45;392</title>
<path fill="none" stroke="black" d="M44.88,-212.83C44.88,-205.7 44.88,-197.19 44.88,-188.93"/>
<polygon fill="black" stroke="black" points="48.38,-189.1 44.88,-179.1 41.38,-189.1 48.38,-189.1"/>
</g>
<!-- array&#45;392 -->
<g id="node4" class="node">
<title>array&#45;392</title>
<g id="a_node4"><a xlink:title="name: array&#45;392&#10;variable: da_slice&#10;shape: (336, 896)&#10;chunks: (168, 224)&#10;dtype: float32&#10;chunk memory: 150.5 KB&#10;nbytes: 1.2 MB&#10;nchunks: 8">
<polygon fill="#ffd8b1" stroke="black" points="76.5,-95 13.25,-95 13.25,-59 76.5,-59 76.5,-95"/>
<text xml:space="preserve" text-anchor="middle" x="44.88" y="-80.25" font-family="Helvetica,sans-Serif" font-size="10.00">array&#45;392</text>
<text xml:space="preserve" text-anchor="middle" x="44.88" y="-67.5" font-family="Helvetica,sans-Serif" font-size="10.00">da_slice</text>
</a>
</g>
</g>
<!-- op&#45;392&#45;&gt;array&#45;392 -->
<g id="edge3" class="edge">
<title>op&#45;392&#45;&gt;array&#45;392</title>
<path fill="none" stroke="black" d="M44.88,-130.59C44.88,-123.01 44.88,-114.45 44.88,-106.48"/>
<polygon fill="black" stroke="black" points="48.38,-106.54 44.88,-96.54 41.38,-106.54 48.38,-106.54"/>
</g>
<!-- create&#45;arrays -->
<g id="node5" class="node">
<title>create&#45;arrays</title>
<g id="a_node5"><a xlink:title="name: create&#45;arrays&#10;op: create&#45;arrays&#10;projected memory: 4 bytes&#10;tasks: 2">
<path fill="none" stroke="black" d="M168.5,-326.38C168.5,-326.38 111.25,-326.38 111.25,-326.38 105.25,-326.38 99.25,-320.38 99.25,-314.38 99.25,-314.38 99.25,-302.38 99.25,-302.38 99.25,-296.38 105.25,-290.38 111.25,-290.38 111.25,-290.38 168.5,-290.38 168.5,-290.38 174.5,-290.38 180.5,-296.38 180.5,-302.38 180.5,-302.38 180.5,-314.38 180.5,-314.38 180.5,-320.38 174.5,-326.38 168.5,-326.38"/>
<text xml:space="preserve" text-anchor="middle" x="139.88" y="-311.62" font-family="Helvetica,sans-Serif" font-size="10.00">create&#45;arrays</text>
<text xml:space="preserve" text-anchor="middle" x="139.88" y="-298.88" font-family="Helvetica,sans-Serif" font-size="10.00">tasks: 2</text>
</a>
</g>
</g>
<!-- arrays -->
<g id="node6" class="node">
<title>arrays</title>
<g id="a_node6"><a xlink:title="name: arrays" target="None">
<polygon fill="none" stroke="black" points="166.88,-249.25 112.88,-249.25 112.88,-213.25 166.88,-213.25 166.88,-249.25"/>
<text xml:space="preserve" text-anchor="middle" x="139.88" y="-228.12" font-family="Helvetica,sans-Serif" font-size="10.00">arrays</text>
</a>
</g>
</g>
<!-- create&#45;arrays&#45;&gt;arrays -->
<g id="edge4" class="edge">
<title>create&#45;arrays&#45;&gt;arrays</title>
<path fill="none" stroke="black" d="M139.88,-289.95C139.88,-281.32 139.88,-270.68 139.88,-260.9"/>
<polygon fill="black" stroke="black" points="143.38,-261.09 139.88,-251.09 136.38,-261.09 143.38,-261.09"/>
</g>
</g>
</svg>
